<svg width="598" height="146" viewBox="0 0 598 146" fill="none" xmlns="http://www.w3.org/2000/svg" class="logo">
                  <path d="M114.634 145.259H16.4047C7.34555 145.259 0 137.919 0 128.866V30.7056C0 21.6529 7.34555 14.3125 16.4047 14.3125H114.634C123.694 14.3125 131.039 21.6529 131.039 30.7056V128.866C131.039 137.919 123.694 145.259 114.634 145.259Z" fill="black"></path>
                  <path d="M187.996 47.875H201.277V93.3828C201.277 102.367 199.471 108.975 195.857 113.207C191.007 118.936 183.699 121.801 173.934 121.801C168.725 121.801 164.347 121.15 160.799 119.848C157.251 118.546 154.256 116.625 151.814 114.086C149.373 111.579 147.566 108.52 146.395 104.906H161.092C162.394 106.404 164.07 107.527 166.121 108.275C168.172 109.057 170.597 109.447 173.396 109.447C176.977 109.447 179.858 108.894 182.039 107.787C184.22 106.68 185.75 105.248 186.629 103.49C187.54 101.732 187.996 98.7051 187.996 94.4082C185.652 96.752 183.195 98.4447 180.623 99.4863C178.051 100.495 175.138 101 171.883 101C164.754 101 158.732 98.4284 153.816 93.2852C148.901 88.1419 146.443 81.6315 146.443 73.7539C146.443 65.3229 149.048 58.5521 154.256 53.4414C158.976 48.819 164.607 46.5078 171.15 46.5078C174.21 46.5078 177.091 47.0775 179.793 48.2168C182.527 49.3236 185.262 51.1628 187.996 53.7344V47.875ZM174.178 58.959C169.979 58.959 166.512 60.375 163.777 63.207C161.043 66.0065 159.676 69.5384 159.676 73.8027C159.676 78.2298 161.076 81.8594 163.875 84.6914C166.674 87.5234 170.19 88.9395 174.422 88.9395C178.556 88.9395 181.958 87.556 184.627 84.7891C187.329 82.0221 188.68 78.3926 188.68 73.9004C188.68 69.4733 187.329 65.8763 184.627 63.1094C181.925 60.3424 178.442 58.959 174.178 58.959ZM204.629 47.875H216.055V54.5645C217.292 51.9277 218.936 49.9258 220.986 48.5586C223.037 47.1914 225.283 46.5078 227.725 46.5078C229.45 46.5078 231.257 46.9635 233.145 47.875L228.994 59.3496C227.432 58.5684 226.146 58.1777 225.137 58.1777C223.086 58.1777 221.344 59.4473 219.912 61.9863C218.512 64.5254 217.812 69.5059 217.812 76.9277L217.861 79.5156V101H204.629V47.875ZM257.736 46.5078C262.749 46.5078 267.453 47.7611 271.848 50.2676C276.275 52.7741 279.725 56.1758 282.199 60.4727C284.673 64.7695 285.91 69.4082 285.91 74.3887C285.91 79.4017 284.657 84.0892 282.15 88.4512C279.676 92.8132 276.291 96.2311 271.994 98.7051C267.697 101.146 262.961 102.367 257.785 102.367C250.168 102.367 243.658 99.6654 238.254 94.2617C232.883 88.8255 230.197 82.2337 230.197 74.4863C230.197 66.1855 233.241 59.2682 239.328 53.7344C244.667 48.9167 250.803 46.5078 257.736 46.5078ZM257.932 59.0566C253.798 59.0566 250.347 60.5052 247.58 63.4023C244.846 66.2669 243.479 69.9453 243.479 74.4375C243.479 79.0599 244.829 82.8034 247.531 85.668C250.266 88.5326 253.716 89.9648 257.883 89.9648C262.049 89.9648 265.516 88.5163 268.283 85.6191C271.05 82.722 272.434 78.9948 272.434 74.4375C272.434 69.8802 271.066 66.1855 268.332 63.3535C265.63 60.4889 262.163 59.0566 257.932 59.0566ZM283.939 47.875H296.977L307.67 78.0996L319.193 47.875H327.152L338.432 77.7578L349.125 47.875H362.26L342.875 101H334.428L323.1 70.7266L311.43 101H303.08L283.939 47.875ZM364.439 28.2949H377.721V47.875H385.631V59.3496H377.721V101H364.439V59.3496H357.604V47.875H364.439V28.2949ZM385.857 27.3672H399.09V53.2461C401.694 51 404.314 49.3236 406.951 48.2168C409.588 47.0775 412.257 46.5078 414.959 46.5078C420.232 46.5078 424.676 48.3307 428.289 51.9766C431.382 55.1341 432.928 59.7728 432.928 65.8926V101H419.793V77.709C419.793 71.5566 419.5 67.39 418.914 65.209C418.328 63.028 417.319 61.4004 415.887 60.3262C414.487 59.252 412.745 58.7148 410.662 58.7148C407.96 58.7148 405.633 59.61 403.68 61.4004C401.759 63.1908 400.424 65.6322 399.676 68.7246C399.285 70.3197 399.09 73.9655 399.09 79.6621V101H385.857V27.3672ZM446.143 87.084C448.258 87.084 450.065 87.8327 451.562 89.3301C453.06 90.7949 453.809 92.5853 453.809 94.7012C453.809 96.8171 453.06 98.6237 451.562 100.121C450.065 101.618 448.258 102.367 446.143 102.367C444.027 102.367 442.22 101.618 440.723 100.121C439.225 98.6237 438.477 96.8171 438.477 94.7012C438.477 92.5853 439.225 90.7949 440.723 89.3301C442.22 87.8327 444.027 87.084 446.143 87.084ZM511.896 58.6172L500.812 64.7207C498.729 62.5397 496.662 61.026 494.611 60.1797C492.593 59.3333 490.217 58.9102 487.482 58.9102C482.502 58.9102 478.465 60.4076 475.373 63.4023C472.313 66.3646 470.783 70.1732 470.783 74.8281C470.783 79.3529 472.264 83.0475 475.227 85.9121C478.189 88.7767 482.079 90.209 486.896 90.209C492.854 90.209 497.492 88.1745 500.812 84.1055L511.311 91.2832C505.614 98.6725 497.574 102.367 487.189 102.367C477.847 102.367 470.523 99.6003 465.217 94.0664C459.943 88.5326 457.307 82.0547 457.307 74.6328C457.307 69.4896 458.592 64.7533 461.164 60.4238C463.736 56.0944 467.316 52.6927 471.906 50.2188C476.529 47.7448 481.688 46.5078 487.385 46.5078C492.658 46.5078 497.395 47.5658 501.594 49.6816C505.793 51.765 509.227 54.7435 511.896 58.6172ZM512.172 47.875H527.65L538.051 62.377L548.598 47.875H563.93L545.766 73.0215L566.176 101H550.697L538.051 83.5684L525.551 101H510.268L530.385 73.0215L512.172 47.875Z" fill="black"></path>
                  <path d="M98.6998 113.277V113.642C89.5257 120.22 78.2827 124.094 66.1307 124.094C53.4249 124.094 41.7117 119.865 32.3286 112.734L44.0313 99.1182C50.2589 103.566 57.8865 106.187 66.1307 106.187C73.9046 106.187 81.1353 103.848 87.1538 99.8491L96.8399 111.136L98.6998 113.277Z" fill="white"></path>
                  <path d="M98.6999 35.4772V71.5943C98.3969 74.4762 97.7282 77.2536 96.7355 79.864C94.7711 85.0116 91.5425 89.5328 87.4152 93.062C86.2449 94.0644 85.0015 94.9832 83.6954 95.8081C78.6172 99.045 72.5987 100.914 66.1308 100.914C59.2032 100.914 52.7772 98.7631 47.49 95.0877C45.8287 93.9391 44.2927 92.6548 42.8821 91.2243C37.0098 85.3144 33.3945 77.1701 33.3945 68.1904C33.3945 67.7832 33.405 67.3655 33.4154 66.9583C33.708 59.1898 36.6964 52.121 41.4819 46.6601C47.4796 39.8 56.3089 35.4668 66.1308 35.4668H90.7692L88.8362 37.7117L85.3881 41.7212L73.4346 55.6397C71.2821 54.3763 68.7848 53.6559 66.1308 53.6559C60.8123 53.6559 56.1626 56.5168 53.6235 60.7874C52.5368 62.6147 51.8368 64.7134 51.6591 66.9479C51.6173 67.3551 51.6069 67.7623 51.6069 68.18C51.6069 71.6256 52.8085 74.7999 54.8251 77.2954C56.0895 78.8616 57.6777 80.1668 59.4958 81.0961C61.4811 82.1193 63.738 82.6936 66.1308 82.6936C68.043 82.6936 69.8715 82.3282 71.5433 81.6495C76.8827 79.4985 80.6547 74.2882 80.6547 68.18C80.6547 67.7727 80.6338 67.3551 80.6025 66.9479H71.6478L77.8962 59.6702L89.902 45.689L93.3606 41.669L98.6999 35.4772Z" fill="white"></path>
                </svg>